<svg width="57" height="57" viewBox="0 0 57 57" fill="none" xmlns="http://www.w3.org/2000/svg">
<path d="M1.2 28.5C1.2 13.4241 13.4241 1.2 28.5 1.2C43.5759 1.2 55.8 13.4241 55.8 28.5C55.8 43.5759 43.5759 55.8 28.5 55.8C13.4241 55.8 1.2 43.5759 1.2 28.5ZM40.2054 31.7357C41.148 31.7357 41.9143 30.9694 41.9143 30.0268V26.9732C41.9143 26.0306 41.148 25.2643 40.2054 25.2643H31.7357V16.7946C31.7357 15.852 30.9694 15.0857 30.0268 15.0857H26.9732C26.0306 15.0857 25.2643 15.852 25.2643 16.7946V25.2643H16.7946C15.852 25.2643 15.0857 26.0306 15.0857 26.9732V30.0268C15.0857 30.9694 15.852 31.7357 16.7946 31.7357H25.2643V40.2054C25.2643 41.148 26.0306 41.9143 26.9732 41.9143H30.0268C30.9694 41.9143 31.7357 41.148 31.7357 40.2054V31.7357H40.2054Z" fill="black" stroke="black" stroke-width="2.4"/>
</svg>