<svg width="24" height="24" viewBox="0 0 24 24" fill="none" xmlns="http://www.w3.org/2000/svg">
<path d="M12 0C18.627 0 24 5.373 24 12C24 18.627 18.627 24 12 24C5.373 24 0 18.627 0 12C0 5.373 5.373 0 12 0ZM12 6C11.8188 6.00001 11.6437 6.06564 11.5071 6.18477C11.3705 6.30389 11.2816 6.46845 11.257 6.648L11.25 6.75V11.25H6.75C6.55998 11.2501 6.37706 11.3222 6.23821 11.452C6.09936 11.5817 6.01493 11.7593 6.00197 11.9489C5.98902 12.1385 6.04852 12.3259 6.16843 12.4733C6.28835 12.6207 6.45975 12.7171 6.648 12.743L6.75 12.75H11.25V17.25C11.2501 17.44 11.3222 17.6229 11.452 17.7618C11.5817 17.9006 11.7593 17.9851 11.9489 17.998C12.1385 18.011 12.3259 17.9515 12.4733 17.8316C12.6207 17.7117 12.7171 17.5402 12.743 17.352L12.75 17.25V12.75H17.25C17.44 12.7499 17.6229 12.6778 17.7618 12.548C17.9006 12.4183 17.9851 12.2407 17.998 12.0511C18.011 11.8615 17.9515 11.6741 17.8316 11.5267C17.7117 11.3793 17.5402 11.2829 17.352 11.257L17.25 11.25H12.75V6.75C12.75 6.55109 12.671 6.36032 12.5303 6.21967C12.3897 6.07902 12.1989 6 12 6V6Z" fill="#C4C4C4"/>
</svg>
