<svg width="26" height="26" viewBox="0 0 26 26" fill="none" xmlns="http://www.w3.org/2000/svg">
<path d="M13 0C5.82062 0 0 5.82062 0 13C0 20.1794 5.82062 26 13 26C20.1794 26 26 20.1794 26 13C26 5.82062 20.1794 0 13 0ZM15.2069 18.2931C15.3036 18.3851 15.381 18.4954 15.4345 18.6178C15.4879 18.7401 15.5163 18.8718 15.518 19.0053C15.5197 19.1388 15.4947 19.2712 15.4444 19.3949C15.3941 19.5185 15.3196 19.6308 15.2252 19.7252C15.1308 19.8196 15.0185 19.8941 14.8949 19.9444C14.7712 19.9947 14.6388 20.0197 14.5053 20.018C14.3718 20.0163 14.2401 19.9879 14.1178 19.9345C13.9954 19.881 13.8851 19.8036 13.7931 19.7069L7.79313 13.7069C7.60573 13.5194 7.50046 13.2651 7.50046 13C7.50046 12.7349 7.60573 12.4806 7.79313 12.2931L13.7931 6.29313C13.9822 6.11351 14.2339 6.01485 14.4947 6.01819C14.7555 6.02152 15.0046 6.1266 15.189 6.311C15.3734 6.4954 15.4785 6.74454 15.4818 7.0053C15.4852 7.26606 15.3865 7.51781 15.2069 7.70687L9.91438 13L15.2069 18.2931Z" fill="#6B6B6B"/>
</svg>
