<svg width="29" height="29" viewBox="0 0 29 29" fill="none" xmlns="http://www.w3.org/2000/svg">
<path d="M27.1875 2.71301L19.9312 2.71304V0.906462C19.9312 0.405642 19.5256 0 19.0249 0C18.5242 0 18.1187 0.405642 18.1187 0.906462V2.71259H10.8687V0.906462C10.8687 0.405642 10.4631 0 9.96241 0C9.4617 0 9.05616 0.405642 9.05616 0.906462V2.71259H1.8125C0.811547 2.71259 0 3.52433 0 4.52551V27.1871C0 28.1882 0.811547 29 1.8125 29H27.1875C28.1885 29 29 28.1882 29 27.1871V4.52551C29 3.52475 28.1885 2.71301 27.1875 2.71301ZM27.1875 27.1871H1.8125V4.52551H9.05616V5.43877C9.05616 5.93957 9.4617 6.34524 9.96241 6.34524C10.4631 6.34524 10.8687 5.93957 10.8687 5.43877V4.52597H18.1187V5.43923C18.1187 5.94005 18.5242 6.34569 19.0249 6.34569C19.5256 6.34569 19.9312 5.94005 19.9312 5.43923V4.52597H27.1875V27.1871ZM20.8438 14.497H22.6562C23.1565 14.497 23.5625 14.0909 23.5625 13.5906V11.7776C23.5625 11.2773 23.1565 10.8712 22.6562 10.8712H20.8438C20.3435 10.8712 19.9375 11.2773 19.9375 11.7776V13.5906C19.9375 14.0909 20.3435 14.497 20.8438 14.497ZM20.8438 21.7483H22.6562C23.1565 21.7483 23.5625 21.3426 23.5625 20.8418V19.0289C23.5625 18.5285 23.1565 18.1224 22.6562 18.1224H20.8438C20.3435 18.1224 19.9375 18.5285 19.9375 19.0289V20.8418C19.9375 21.3431 20.3435 21.7483 20.8438 21.7483ZM15.4062 18.1224H13.5938C13.0935 18.1224 12.6875 18.5285 12.6875 19.0289V20.8418C12.6875 21.3426 13.0935 21.7483 13.5938 21.7483H15.4062C15.9065 21.7483 16.3125 21.3426 16.3125 20.8418V19.0289C16.3125 18.529 15.9065 18.1224 15.4062 18.1224ZM15.4062 10.8712H13.5938C13.0935 10.8712 12.6875 11.2773 12.6875 11.7776V13.5906C12.6875 14.0909 13.0935 14.497 13.5938 14.497H15.4062C15.9065 14.497 16.3125 14.0909 16.3125 13.5906V11.7776C16.3125 11.2768 15.9065 10.8712 15.4062 10.8712ZM8.15625 10.8712H6.34375C5.8435 10.8712 5.4375 11.2773 5.4375 11.7776V13.5906C5.4375 14.0909 5.8435 14.497 6.34375 14.497H8.15625C8.6565 14.497 9.0625 14.0909 9.0625 13.5906V11.7776C9.0625 11.2768 8.6565 10.8712 8.15625 10.8712ZM8.15625 18.1224H6.34375C5.8435 18.1224 5.4375 18.5285 5.4375 19.0289V20.8418C5.4375 21.3426 5.8435 21.7483 6.34375 21.7483H8.15625C8.6565 21.7483 9.0625 21.3426 9.0625 20.8418V19.0289C9.0625 18.529 8.6565 18.1224 8.15625 18.1224Z" fill="black"/>
</svg>