<svg width="26" height="26" viewBox="0 0 26 26" fill="none" xmlns="http://www.w3.org/2000/svg">
<path d="M12.2451 1.91469e-05C9.13093 -0.00549207 6.13209 1.17894 3.8608 3.31151C1.58951 5.44407 0.21705 8.36395 0.0236196 11.475C-0.169811 14.5861 0.830372 17.6538 2.81998 20.0518C4.80958 22.4498 7.63857 23.9972 10.7294 24.3782C10.7431 24.2329 10.7676 24.0877 10.8058 23.9393L11.3772 21.6483C11.5911 20.7887 12.0348 20.0035 12.6607 19.3772L20.0406 11.9903C20.5999 11.4309 21.2998 11.0332 22.0664 10.8393C22.8329 10.6455 23.6376 10.6627 24.3952 10.8892C24.0639 7.89554 22.6411 5.12939 20.3993 3.12026C18.1575 1.11112 15.2542 0.000150181 12.2451 1.91469e-05ZM13.7425 20.4584L21.1224 13.0716C21.6585 12.5354 22.3855 12.2343 23.1434 12.2346C23.9013 12.2348 24.628 12.5365 25.1638 13.0731C25.6995 13.6097 26.0003 14.3374 26 15.096C25.9997 15.8546 25.6984 16.5821 25.1622 17.1183L17.7823 24.5036C17.3524 24.9342 16.8137 25.2397 16.2238 25.3876L13.935 25.9596C13.7074 26.0164 13.469 26.0133 13.243 25.9506C13.0169 25.8879 12.811 25.7677 12.645 25.6018C12.4791 25.4358 12.3589 25.2298 12.296 25.0036C12.2332 24.7774 12.2298 24.5388 12.2863 24.3109L12.8593 22.0199C13.0059 21.429 13.3113 20.8895 13.7425 20.46V20.4584Z" fill="#6B6B6B"/>
</svg>
