<svg width="42" height="42" viewBox="0 0 42 42" fill="none" xmlns="http://www.w3.org/2000/svg">
<path d="M41.1308 20.6559L22.0479 0.459962C21.9105 0.314155 21.7473 0.198478 21.5676 0.119552C21.388 0.0406257 21.1954 0 21.0009 0C20.8064 0 20.6138 0.0406257 20.4341 0.119552C20.2544 0.198478 20.0912 0.314155 19.9538 0.459962L0.870982 20.6559C0.315036 21.2447 0 22.0445 0 22.8786C0 24.6107 1.32964 26.0189 2.96505 26.0189H4.97572V40.4299C4.97572 41.2983 5.63822 42 6.45824 42H18.0358V31.009H23.2247V42H35.5435C36.3635 42 37.026 41.2983 37.026 40.4299V26.0189H39.0367C39.8243 26.0189 40.5794 25.6902 41.1354 25.0965C42.289 23.8698 42.289 21.8826 41.1308 20.6559Z" fill="url(#paint0_linear_1_45)"/>
<defs>
<linearGradient id="paint0_linear_1_45" x1="21" y1="-2.23517e-07" x2="13.5" y2="51.5" gradientUnits="userSpaceOnUse">
<stop stop-color="#BD00FF"/>
<stop offset="1" stop-color="#6100FF"/>
</linearGradient>
</defs>
</svg>
