<svg width="57" height="57" viewBox="0 0 57 57" fill="none" xmlns="http://www.w3.org/2000/svg">
<path d="M1.5 28.5C1.5 13.5898 13.5898 1.5 28.5 1.5C43.4102 1.5 55.5 13.5898 55.5 28.5C55.5 43.4102 43.4102 55.5 28.5 55.5C13.5898 55.5 1.5 43.4102 1.5 28.5ZM40.2054 32.0357C41.3137 32.0357 42.2143 31.1351 42.2143 30.0268V26.9732C42.2143 25.8649 41.3137 24.9643 40.2054 24.9643H32.0357V16.7946C32.0357 15.6863 31.1351 14.7857 30.0268 14.7857H26.9732C25.8649 14.7857 24.9643 15.6863 24.9643 16.7946V24.9643H16.7946C15.6863 24.9643 14.7857 25.8649 14.7857 26.9732V30.0268C14.7857 31.1351 15.6863 32.0357 16.7946 32.0357H24.9643V40.2054C24.9643 41.3137 25.8649 42.2143 26.9732 42.2143H30.0268C31.1351 42.2143 32.0357 41.3137 32.0357 40.2054V32.0357H40.2054Z" fill="black" stroke="url(#paint0_linear_3_345)" stroke-width="3"/>
<defs>
<linearGradient id="paint0_linear_3_345" x1="57" y1="2.47359e-06" x2="-26.5" y2="83" gradientUnits="userSpaceOnUse">
<stop stop-color="#FC53FF"/>
<stop offset="0.712699" stop-color="#512BE8"/>
</linearGradient>
</defs>
</svg>
