<svg width="186" height="41" viewBox="0 0 186 41" fill="none" xmlns="http://www.w3.org/2000/svg">
<path d="M77.4534 15.8527C77.4534 17.0447 77.1947 18.113 76.6774 19.0576C76.1602 20.0022 75.4405 20.8006 74.5184 21.4528C73.6187 22.0826 72.5505 22.5661 71.3135 22.9035C70.0765 23.2408 68.7383 23.4095 67.299 23.4095H66.7254V31H61.1928V8.53211H67.67C69.0869 8.53211 70.3914 8.6783 71.5834 8.97067C72.7978 9.26305 73.8324 9.71285 74.687 10.3201C75.5642 10.9048 76.2389 11.6583 76.7112 12.5804C77.206 13.5025 77.4534 14.5933 77.4534 15.8527ZM72.1231 15.8865C72.1231 13.8173 70.65 12.7828 67.7038 12.7828H66.7254V19.1588H67.6363C69.0982 19.1588 70.2115 18.8664 70.9761 18.2817C71.7408 17.6969 72.1231 16.8985 72.1231 15.8865ZM96.9725 15.6503C96.9725 17.1572 96.5452 18.4729 95.6906 19.5974C94.8585 20.7219 93.689 21.5765 92.1821 22.1613L99.5702 31H92.7556L86.582 23.2071H85.5699V31H80.0373V8.53211H87.1892C88.5836 8.53211 89.8768 8.6783 91.0688 8.97067C92.2608 9.26305 93.2954 9.70161 94.1725 10.2864C95.0496 10.8711 95.7356 11.6133 96.2304 12.5129C96.7252 13.39 96.9725 14.4358 96.9725 15.6503ZM91.6423 15.7515C91.6423 14.7395 91.2487 13.9973 90.4616 13.525C89.6744 13.0302 88.5724 12.7828 87.1555 12.7828H85.5699V19.0913H86.9193C88.4037 19.0913 89.562 18.799 90.3941 18.2142C91.2263 17.6295 91.6423 16.8086 91.6423 15.7515ZM123.214 19.7661C123.214 21.3629 122.955 22.8697 122.438 24.2866C121.921 25.681 121.167 26.9068 120.178 27.9638C119.211 29.0208 118.019 29.8642 116.602 30.494C115.185 31.1012 113.566 31.4048 111.744 31.4048C109.922 31.4048 108.292 31.1012 106.852 30.494C105.435 29.8642 104.232 29.0208 103.243 27.9638C102.276 26.9068 101.533 25.681 101.016 24.2866C100.521 22.8697 100.274 21.3629 100.274 19.7661C100.274 18.1692 100.521 16.6736 101.016 15.2792C101.533 13.8623 102.276 12.6254 103.243 11.5683C104.232 10.5113 105.435 9.67912 106.852 9.07188C108.292 8.44215 109.922 8.12728 111.744 8.12728C113.566 8.12728 115.185 8.44215 116.602 9.07188C118.019 9.67912 119.211 10.5113 120.178 11.5683C121.167 12.6254 121.921 13.8623 122.438 15.2792C122.955 16.6736 123.214 18.1692 123.214 19.7661ZM111.744 27.0192C112.711 27.0192 113.566 26.8393 114.308 26.4794C115.05 26.1196 115.669 25.6248 116.163 24.9951C116.681 24.3428 117.063 23.5782 117.31 22.701C117.558 21.8014 117.681 20.8231 117.681 19.7661C117.681 18.709 117.558 17.7419 117.31 16.8648C117.063 15.9652 116.681 15.2005 116.163 14.5708C115.669 13.9186 115.05 13.4125 114.308 13.0527C113.566 12.6928 112.711 12.5129 111.744 12.5129C110.754 12.5129 109.889 12.6928 109.146 13.0527C108.427 13.4125 107.808 13.9186 107.291 14.5708C106.796 15.2005 106.425 15.9652 106.178 16.8648C105.93 17.7419 105.807 18.709 105.807 19.7661C105.807 20.8231 105.93 21.8014 106.178 22.701C106.425 23.5782 106.796 24.3428 107.291 24.9951C107.808 25.6248 108.427 26.1196 109.146 26.4794C109.889 26.8393 110.754 27.0192 111.744 27.0192ZM141.602 27.424H136.271L131.886 18.4166L131.211 31H125.78L127.466 8.53211H132.459L138.936 22.2625L145.414 8.53211H150.407L152.093 31H146.662L145.987 18.4166L141.602 27.424ZM169.611 26.6481H161.008L159.625 31H153.924L162.29 8.53211H168.363L176.729 31H171.028L169.611 26.6481ZM162.425 22.2625H168.194L165.326 12.7828L162.425 22.2625Z" fill="black"/>
<path d="M34 20C34 29.3888 26.3888 37 17 37C7.61121 37 0 29.3888 0 20C0 10.6112 7.61121 3 17 3C26.3888 3 34 10.6112 34 20Z" fill="#68DBFF"/>
<path d="M52 20C52 29.3888 44.6126 37 35.5 37C26.3873 37 19 29.3888 19 20C19 10.6112 26.3873 3 35.5 3C44.6126 3 52 10.6112 52 20Z" fill="#C945F8"/>
<path d="M26.463 34C31.0016 31.0147 34 25.8594 34 19.9999C34 14.1406 31.0016 8.98524 26.463 6C21.969 8.98524 19 14.1406 19 19.9999C19 25.8594 21.969 31.0147 26.463 34Z" fill="#5D2C02"/>
</svg>
