<svg viewBox="0 0 42 42" fill="none" xmlns="http://www.w3.org/2000/svg">
<path fill-rule="evenodd" clip-rule="evenodd" d="M7 0C5.14348 0 3.36301 0.737498 2.05025 2.05025C0.737498 3.36301 0 5.14348 0 7V35C0 36.8565 0.737498 38.637 2.05025 39.9497C3.36301 41.2625 5.14348 42 7 42H35C36.8565 42 38.637 41.2625 39.9497 39.9497C41.2625 38.637 42 36.8565 42 35V7C42 5.14348 41.2625 3.36301 39.9497 2.05025C38.637 0.737498 36.8565 0 35 0H7ZM16.3333 11.6667C16.3333 11.0478 16.5792 10.4543 17.0168 10.0168C17.4543 9.57917 18.0478 9.33333 18.6667 9.33333H32.6667C33.2855 9.33333 33.879 9.57917 34.3166 10.0168C34.7542 10.4543 35 11.0478 35 11.6667C35 12.2855 34.7542 12.879 34.3166 13.3166C33.879 13.7542 33.2855 14 32.6667 14H18.6667C18.0478 14 17.4543 13.7542 17.0168 13.3166C16.5792 12.879 16.3333 12.2855 16.3333 11.6667ZM16.3333 21C16.3333 20.3812 16.5792 19.7877 17.0168 19.3501C17.4543 18.9125 18.0478 18.6667 18.6667 18.6667H32.6667C33.2855 18.6667 33.879 18.9125 34.3166 19.3501C34.7542 19.7877 35 20.3812 35 21C35 21.6188 34.7542 22.2123 34.3166 22.6499C33.879 23.0875 33.2855 23.3333 32.6667 23.3333H18.6667C18.0478 23.3333 17.4543 23.0875 17.0168 22.6499C16.5792 22.2123 16.3333 21.6188 16.3333 21ZM16.3333 30.3333C16.3333 29.7145 16.5792 29.121 17.0168 28.6834C17.4543 28.2458 18.0478 28 18.6667 28H32.6667C33.2855 28 33.879 28.2458 34.3166 28.6834C34.7542 29.121 35 29.7145 35 30.3333C35 30.9522 34.7542 31.5457 34.3166 31.9832C33.879 32.4208 33.2855 32.6667 32.6667 32.6667H18.6667C18.0478 32.6667 17.4543 32.4208 17.0168 31.9832C16.5792 31.5457 16.3333 30.9522 16.3333 30.3333ZM9.33333 9.33333C8.71449 9.33333 8.121 9.57917 7.68342 10.0168C7.24583 10.4543 7 11.0478 7 11.6667C7 12.2855 7.24583 12.879 7.68342 13.3166C8.121 13.7542 8.71449 14 9.33333 14H9.33567C9.9545 14 10.548 13.7542 10.9856 13.3166C11.4232 12.879 11.669 12.2855 11.669 11.6667C11.669 11.0478 11.4232 10.4543 10.9856 10.0168C10.548 9.57917 9.9545 9.33333 9.33567 9.33333H9.33333ZM7 21C7 20.3812 7.24583 19.7877 7.68342 19.3501C8.121 18.9125 8.71449 18.6667 9.33333 18.6667H9.33567C9.9545 18.6667 10.548 18.9125 10.9856 19.3501C11.4232 19.7877 11.669 20.3812 11.669 21C11.669 21.6188 11.4232 22.2123 10.9856 22.6499C10.548 23.0875 9.9545 23.3333 9.33567 23.3333H9.33333C8.71449 23.3333 8.121 23.0875 7.68342 22.6499C7.24583 22.2123 7 21.6188 7 21ZM9.33333 28C8.71449 28 8.121 28.2458 7.68342 28.6834C7.24583 29.121 7 29.7145 7 30.3333C7 30.9522 7.24583 31.5457 7.68342 31.9832C8.121 32.4208 8.71449 32.6667 9.33333 32.6667H9.33567C9.9545 32.6667 10.548 32.4208 10.9856 31.9832C11.4232 31.5457 11.669 30.9522 11.669 30.3333C11.669 29.7145 11.4232 29.121 10.9856 28.6834C10.548 28.2458 9.9545 28 9.33567 28H9.33333Z" fill="black"/>
</svg>