<svg width="36" height="36" viewBox="0 0 36 36" fill="none" xmlns="http://www.w3.org/2000/svg">
<path d="M18.15 17.85V3H29.7C30.6075 3 31.3846 3.32285 32.0314 3.96855C32.6772 4.61535 33 5.3925 33 6.3V17.85H18.15ZM18.15 36V21.15H33V32.7C33 33.6075 32.6772 34.3846 32.0314 35.0314C31.3846 35.6772 30.6075 36 29.7 36H18.15ZM0 17.85V6.3C0 5.3925 0.3234 4.61535 0.9702 3.96855C1.6159 3.32285 2.3925 3 3.3 3H14.85V17.85H0ZM3.3 36C2.3925 36 1.6159 35.6772 0.9702 35.0314C0.3234 34.3846 0 33.6075 0 32.7V21.15H14.85V36H3.3Z" fill="#898989"/>
</svg>
