<svg width="42" height="42" viewBox="0 0 42 42" fill="none" xmlns="http://www.w3.org/2000/svg">
<path d="M6.09677 0C7.22298 0 8.12903 1.08534 8.12903 2.42308V7.26923C8.12903 8.61202 7.22298 9.69231 6.09677 9.69231H2.03226C0.910282 9.69231 0 8.61202 0 7.26923V2.42308C0 1.08534 0.910282 0 2.03226 0H6.09677ZM39.2903 1.61538C40.7891 1.61538 42 3.06216 42 4.84615C42 6.63317 40.7891 8.07692 39.2903 8.07692H14.9032C13.4044 8.07692 12.1935 6.63317 12.1935 4.84615C12.1935 3.06216 13.4044 1.61538 14.9032 1.61538H39.2903ZM39.2903 17.7692C40.7891 17.7692 42 19.213 42 21C42 22.787 40.7891 24.2308 39.2903 24.2308H14.9032C13.4044 24.2308 12.1935 22.787 12.1935 21C12.1935 19.213 13.4044 17.7692 14.9032 17.7692H39.2903ZM39.2903 33.9231C40.7891 33.9231 42 35.3668 42 37.1538C42 38.9409 40.7891 40.3846 39.2903 40.3846H14.9032C13.4044 40.3846 12.1935 38.9409 12.1935 37.1538C12.1935 35.3668 13.4044 33.9231 14.9032 33.9231H39.2903ZM0 18.5769C0 17.2341 0.910282 16.1538 2.03226 16.1538H6.09677C7.22298 16.1538 8.12903 17.2341 8.12903 18.5769V23.4231C8.12903 24.7659 7.22298 25.8462 6.09677 25.8462H2.03226C0.910282 25.8462 0 24.7659 0 23.4231V18.5769ZM6.09677 32.3077C7.22298 32.3077 8.12903 33.388 8.12903 34.7308V39.5769C8.12903 40.9197 7.22298 42 6.09677 42H2.03226C0.910282 42 0 40.9197 0 39.5769V34.7308C0 33.388 0.910282 32.3077 2.03226 32.3077H6.09677Z" fill="black"/>
</svg>
