<svg width="36" height="36" viewBox="0 0 36 36" fill="none" xmlns="http://www.w3.org/2000/svg">
<path d="M0 18.0006L18 0L36 18L18 36L0 18.0006Z" fill="#25333A"/>
<path d="M34.0549 16.0599C34.3098 16.3147 34.512 16.6172 34.65 16.9501C34.788 17.283 34.859 17.6399 34.859 18.0003C34.859 18.3606 34.788 18.7175 34.65 19.0504C34.512 19.3833 34.3098 19.6858 34.0549 19.9406L19.9338 34.0616C19.4192 34.576 18.7214 34.8649 17.9938 34.8649C17.2662 34.8649 16.5684 34.576 16.0538 34.0616L1.93271 19.9406C1.41856 19.4261 1.12974 18.7285 1.12974 18.0011C1.12974 17.2737 1.41856 16.5761 1.93271 16.0616L16.0538 1.94056C16.3085 1.68576 16.6109 1.48363 16.9437 1.34573C17.2765 1.20782 17.6333 1.13684 17.9935 1.13684C18.3538 1.13684 18.7105 1.20782 19.0434 1.34573C19.3762 1.48363 19.6786 1.68576 19.9333 1.94056L34.0543 16.0616" fill="#724198"/>
<path d="M13.704 31.7091L16.0577 34.0628C16.5723 34.5772 17.2702 34.8661 17.9977 34.8661C18.7253 34.8661 19.4232 34.5772 19.9378 34.0628L34.0588 19.9418C34.3138 19.687 34.516 19.3845 34.6539 19.0516C34.7919 18.7187 34.8629 18.3618 34.8629 18.0014C34.8629 17.6411 34.7919 17.2842 34.6539 16.9513C34.516 16.6184 34.3138 16.3159 34.0588 16.0611L19.9378 1.94006C28.0288 16.1776 17.6865 27.9366 13.7018 31.7057" fill="#0867A3"/>
<path d="M30.808 18.403L17.9977 31.0129L5.18748 18.403L17.9983 5.79138L30.808 18.403Z" fill="#439DD7"/>
<path d="M21.718 18.403L17.9983 22.0624L14.2792 18.403L17.9983 14.7402L21.718 18.403Z" fill="white"/>
<path d="M17.9983 5.79138L12.2154 18.403L17.9977 31.0129L5.18748 18.403L17.9983 5.79138Z" fill="#8DCBEF"/>
</svg>
